<?xml version="1.0" encoding="utf-8"?>
<!-- Generator: Adobe Illustrator 24.3.0, SVG Export Plug-In . SVG Version: 6.00 Build 0)  -->
<svg version="1.1" xmlns="http://www.w3.org/2000/svg" xmlns:xlink="http://www.w3.org/1999/xlink" x="0px" y="0px"
	 viewBox="0 0 192.32 193.21" style="enable-background:new 0 0 192.32 193.21;" xml:space="preserve">
<style type="text/css">
	.st0{fill-rule:evenodd;clip-rule:evenodd;fill:url(#SVGID_1_);}
	.st1{fill-rule:evenodd;clip-rule:evenodd;fill:url(#SVGID_2_);}
	.st2{fill-rule:evenodd;clip-rule:evenodd;fill:url(#SVGID_3_);}
	.st3{fill-rule:evenodd;clip-rule:evenodd;fill:url(#SVGID_4_);}
	.st4{fill-rule:evenodd;clip-rule:evenodd;fill:url(#SVGID_5_);}
	.st5{fill-rule:evenodd;clip-rule:evenodd;fill:url(#SVGID_6_);}
	.st6{fill-rule:evenodd;clip-rule:evenodd;fill:#3361E0;}
	.st7{fill-rule:evenodd;clip-rule:evenodd;fill:none;stroke:#3361E0;stroke-width:4;stroke-miterlimit:10;}
	.st8{fill-rule:evenodd;clip-rule:evenodd;fill:url(#SVGID_7_);}
	.st9{fill-rule:evenodd;clip-rule:evenodd;fill:url(#SVGID_8_);}
	.st10{fill-rule:evenodd;clip-rule:evenodd;fill:url(#SVGID_9_);}
	.st11{fill-rule:evenodd;clip-rule:evenodd;fill:url(#SVGID_10_);}
	.st12{fill-rule:evenodd;clip-rule:evenodd;fill:url(#SVGID_11_);}
	.st13{fill-rule:evenodd;clip-rule:evenodd;fill:url(#SVGID_12_);}
</style>
<g id="logo_1">
</g>
<g id="logo_2">
</g>
<g id="logo_3">
	<linearGradient id="SVGID_1_" gradientUnits="userSpaceOnUse" x1="4.5992" y1="43.601" x2="114.2817" y2="43.601">
		<stop  offset="0.0726" style="stop-color:#CCE0F4"/>
		<stop  offset="0.1203" style="stop-color:#C3DCF2"/>
		<stop  offset="0.1996" style="stop-color:#A9D2EE"/>
		<stop  offset="0.3007" style="stop-color:#80C2E7"/>
		<stop  offset="0.4185" style="stop-color:#47ACDE"/>
		<stop  offset="0.4948" style="stop-color:#1E9CD7"/>
		<stop  offset="0.7758" style="stop-color:#0075BE"/>
		<stop  offset="0.9944" style="stop-color:#005B97"/>
	</linearGradient>
	<path class="st0" d="M4.6,77.36c0,0,53-29.94,109.68-22.28c0,0-32.31-36.69-52.58-45.24C61.7,9.84,18.66,22.37,4.6,77.36z"/>
	<linearGradient id="SVGID_2_" gradientUnits="userSpaceOnUse" x1="67.1218" y1="47.2785" x2="154.6453" y2="47.2785">
		<stop  offset="0.0726" style="stop-color:#CCE0F4"/>
		<stop  offset="0.1203" style="stop-color:#C3DCF2"/>
		<stop  offset="0.1996" style="stop-color:#A9D2EE"/>
		<stop  offset="0.3007" style="stop-color:#80C2E7"/>
		<stop  offset="0.4185" style="stop-color:#47ACDE"/>
		<stop  offset="0.4948" style="stop-color:#1E9CD7"/>
		<stop  offset="0.7758" style="stop-color:#0075BE"/>
		<stop  offset="0.9944" style="stop-color:#005B97"/>
	</linearGradient>
	<path class="st1" d="M67.12,7.89c0,0,52.61,31.02,74.39,83.96c0,0,14.35-37.47,13.05-68.1C154.56,23.75,112.05-9.86,67.12,7.89z"/>
	<linearGradient id="SVGID_3_" gradientUnits="userSpaceOnUse" x1="124.154" y1="80.0384" x2="189.7777" y2="80.0384">
		<stop  offset="0.0726" style="stop-color:#CCE0F4"/>
		<stop  offset="0.1203" style="stop-color:#C3DCF2"/>
		<stop  offset="0.1996" style="stop-color:#A9D2EE"/>
		<stop  offset="0.3007" style="stop-color:#80C2E7"/>
		<stop  offset="0.4185" style="stop-color:#47ACDE"/>
		<stop  offset="0.4948" style="stop-color:#1E9CD7"/>
		<stop  offset="0.7758" style="stop-color:#0075BE"/>
		<stop  offset="0.9944" style="stop-color:#005B97"/>
	</linearGradient>
	<path class="st2" d="M158.46,27.04c0,0,0.25,60.38-34.3,105.99c0,0,42.07-6.61,64.61-22.45c1.18-8.04,1.81-19.32-0.85-32.29
		C182.31,51.01,165.76,33.79,158.46,27.04z"/>
	<linearGradient id="SVGID_4_" gradientUnits="userSpaceOnUse" x1="78.3668" y1="150.0587" x2="187.7675" y2="150.0587">
		<stop  offset="0.0726" style="stop-color:#CCE0F4"/>
		<stop  offset="0.1203" style="stop-color:#C3DCF2"/>
		<stop  offset="0.1996" style="stop-color:#A9D2EE"/>
		<stop  offset="0.3007" style="stop-color:#80C2E7"/>
		<stop  offset="0.4185" style="stop-color:#47ACDE"/>
		<stop  offset="0.4948" style="stop-color:#1E9CD7"/>
		<stop  offset="0.7758" style="stop-color:#0075BE"/>
		<stop  offset="0.9944" style="stop-color:#005B97"/>
	</linearGradient>
	<path class="st3" d="M187.77,116.17c0,0-46.76,28.61-109.4,22.65c0,0,25.71,31.86,52.26,45.12c9.74-4.17,32.63-15.63,47.11-41.13
		C183.29,133.03,186.19,123.67,187.77,116.17z"/>
	<linearGradient id="SVGID_5_" gradientUnits="userSpaceOnUse" x1="38.1693" y1="146.1918" x2="124.7922" y2="146.1918">
		<stop  offset="0.0726" style="stop-color:#CCE0F4"/>
		<stop  offset="0.1203" style="stop-color:#C3DCF2"/>
		<stop  offset="0.1996" style="stop-color:#A9D2EE"/>
		<stop  offset="0.3007" style="stop-color:#80C2E7"/>
		<stop  offset="0.4185" style="stop-color:#47ACDE"/>
		<stop  offset="0.4948" style="stop-color:#1E9CD7"/>
		<stop  offset="0.7758" style="stop-color:#0075BE"/>
		<stop  offset="0.9944" style="stop-color:#005B97"/>
	</linearGradient>
	<path class="st4" d="M50.79,101.89c0,0,15.74,46.42,74,84.14c-7.4,2.37-17.31,4.55-29.02,4.46c-28.57-0.22-49.24-13.85-57.58-20.1
		C38.2,170.39,37.01,137.97,50.79,101.89z"/>
	<linearGradient id="SVGID_6_" gradientUnits="userSpaceOnUse" x1="2.5462" y1="113.4474" x2="69.0051" y2="113.4474">
		<stop  offset="0.0726" style="stop-color:#CCE0F4"/>
		<stop  offset="0.1203" style="stop-color:#C3DCF2"/>
		<stop  offset="0.1996" style="stop-color:#A9D2EE"/>
		<stop  offset="0.3007" style="stop-color:#80C2E7"/>
		<stop  offset="0.4185" style="stop-color:#47ACDE"/>
		<stop  offset="0.4948" style="stop-color:#1E9CD7"/>
		<stop  offset="0.7758" style="stop-color:#0075BE"/>
		<stop  offset="0.9944" style="stop-color:#005B97"/>
	</linearGradient>
	<path class="st5" d="M69.01,60.01c0,0-34.09,40.8-35,106.87c-6.23-5.52-18.48-17.87-25.79-37.86c-7.33-20.05-5.9-37.44-4.68-45.68
		C3.53,83.34,46.88,60.01,69.01,60.01z"/>
</g>
</svg>
