<?xml version="1.0" encoding="utf-8"?>
<!-- Generator: Adobe Illustrator 24.3.0, SVG Export Plug-In . SVG Version: 6.00 Build 0)  -->
<svg version="1.1" xmlns="http://www.w3.org/2000/svg" xmlns:xlink="http://www.w3.org/1999/xlink" x="0px" y="0px"
	 viewBox="0 0 192.32 193.21" style="enable-background:new 0 0 192.32 193.21;" xml:space="preserve">
<style type="text/css">
	.st0{fill-rule:evenodd;clip-rule:evenodd;fill:url(#SVGID_1_);}
	.st1{fill-rule:evenodd;clip-rule:evenodd;fill:url(#SVGID_2_);}
	.st2{fill-rule:evenodd;clip-rule:evenodd;fill:url(#SVGID_3_);}
	.st3{fill-rule:evenodd;clip-rule:evenodd;fill:url(#SVGID_4_);}
	.st4{fill-rule:evenodd;clip-rule:evenodd;fill:url(#SVGID_5_);}
	.st5{fill-rule:evenodd;clip-rule:evenodd;fill:url(#SVGID_6_);}
	.st6{fill-rule:evenodd;clip-rule:evenodd;fill:#3361E0;}
	.st7{fill-rule:evenodd;clip-rule:evenodd;fill:none;stroke:#3361E0;stroke-width:4;stroke-miterlimit:10;}
	.st8{fill-rule:evenodd;clip-rule:evenodd;fill:url(#SVGID_7_);}
	.st9{fill-rule:evenodd;clip-rule:evenodd;fill:url(#SVGID_8_);}
	.st10{fill-rule:evenodd;clip-rule:evenodd;fill:url(#SVGID_9_);}
	.st11{fill-rule:evenodd;clip-rule:evenodd;fill:url(#SVGID_10_);}
	.st12{fill-rule:evenodd;clip-rule:evenodd;fill:url(#SVGID_11_);}
	.st13{fill-rule:evenodd;clip-rule:evenodd;fill:url(#SVGID_12_);}
</style>
<g id="logo_1">
	<radialGradient id="SVGID_1_" cx="58.9368" cy="44.6117" r="45.5378" gradientUnits="userSpaceOnUse">
		<stop  offset="0" style="stop-color:#CCE0F4"/>
		<stop  offset="0.0641" style="stop-color:#C3DCF2"/>
		<stop  offset="0.1706" style="stop-color:#A9D2EE"/>
		<stop  offset="0.3066" style="stop-color:#80C2E7"/>
		<stop  offset="0.4649" style="stop-color:#47ACDE"/>
		<stop  offset="0.5674" style="stop-color:#1E9CD7"/>
		<stop  offset="0.8652" style="stop-color:#0075BE"/>
		<stop  offset="0.9944" style="stop-color:#005B97"/>
	</radialGradient>
	<path class="st0" d="M4.1,78.37c0,0,53-29.94,109.68-22.28c0,0-32.31-36.69-52.58-45.24C61.2,10.85,18.16,23.38,4.1,78.37z"/>
	<radialGradient id="SVGID_2_" cx="110.3799" cy="48.2892" r="44.1656" gradientUnits="userSpaceOnUse">
		<stop  offset="0" style="stop-color:#CCE0F4"/>
		<stop  offset="0.0641" style="stop-color:#C3DCF2"/>
		<stop  offset="0.1706" style="stop-color:#A9D2EE"/>
		<stop  offset="0.3066" style="stop-color:#80C2E7"/>
		<stop  offset="0.4649" style="stop-color:#47ACDE"/>
		<stop  offset="0.5674" style="stop-color:#1E9CD7"/>
		<stop  offset="0.8652" style="stop-color:#0075BE"/>
		<stop  offset="0.9944" style="stop-color:#005B97"/>
	</radialGradient>
	<path class="st1" d="M66.62,8.9c0,0,52.61,31.02,74.39,83.96c0,0,14.35-37.47,13.05-68.1C154.06,24.76,111.54-8.85,66.62,8.9z"/>
	<radialGradient id="SVGID_3_" cx="156.4622" cy="81.049" r="44.0757" gradientUnits="userSpaceOnUse">
		<stop  offset="0" style="stop-color:#CCE0F4"/>
		<stop  offset="0.0641" style="stop-color:#C3DCF2"/>
		<stop  offset="0.1706" style="stop-color:#A9D2EE"/>
		<stop  offset="0.3066" style="stop-color:#80C2E7"/>
		<stop  offset="0.4649" style="stop-color:#47ACDE"/>
		<stop  offset="0.5674" style="stop-color:#1E9CD7"/>
		<stop  offset="0.8652" style="stop-color:#0075BE"/>
		<stop  offset="0.9944" style="stop-color:#005B97"/>
	</radialGradient>
	<path class="st2" d="M157.95,28.05c0,0,0.25,60.38-34.3,105.99c0,0,42.07-6.61,64.61-22.45c1.18-8.04,1.81-19.32-0.85-32.29
		C181.81,52.02,165.26,34.81,157.95,28.05z"/>
	<radialGradient id="SVGID_4_" cx="132.5635" cy="151.0694" r="45.4986" gradientUnits="userSpaceOnUse">
		<stop  offset="0" style="stop-color:#CCE0F4"/>
		<stop  offset="0.0641" style="stop-color:#C3DCF2"/>
		<stop  offset="0.1706" style="stop-color:#A9D2EE"/>
		<stop  offset="0.3066" style="stop-color:#80C2E7"/>
		<stop  offset="0.4649" style="stop-color:#47ACDE"/>
		<stop  offset="0.5674" style="stop-color:#1E9CD7"/>
		<stop  offset="0.8652" style="stop-color:#0075BE"/>
		<stop  offset="0.9944" style="stop-color:#005B97"/>
	</radialGradient>
	<path class="st3" d="M187.26,117.19c0,0-46.76,28.61-109.4,22.65c0,0,25.71,31.86,52.26,45.12c9.74-4.17,32.63-15.63,47.11-41.13
		C182.79,134.04,185.69,124.68,187.26,117.19z"/>
	<radialGradient id="SVGID_5_" cx="80.9771" cy="147.2025" r="43.8111" gradientUnits="userSpaceOnUse">
		<stop  offset="0" style="stop-color:#CCE0F4"/>
		<stop  offset="0.0641" style="stop-color:#C3DCF2"/>
		<stop  offset="0.1706" style="stop-color:#A9D2EE"/>
		<stop  offset="0.3066" style="stop-color:#80C2E7"/>
		<stop  offset="0.4649" style="stop-color:#47ACDE"/>
		<stop  offset="0.5674" style="stop-color:#1E9CD7"/>
		<stop  offset="0.8652" style="stop-color:#0075BE"/>
		<stop  offset="0.9944" style="stop-color:#005B97"/>
	</radialGradient>
	<path class="st4" d="M50.29,102.9c0,0,15.74,46.42,74,84.14c-7.4,2.37-17.31,4.55-29.02,4.46c-28.57-0.22-49.24-13.85-57.58-20.1
		C37.69,171.4,36.5,138.98,50.29,102.9z"/>
	<radialGradient id="SVGID_6_" cx="35.272" cy="114.4581" r="44.4932" gradientUnits="userSpaceOnUse">
		<stop  offset="0" style="stop-color:#CCE0F4"/>
		<stop  offset="0.0641" style="stop-color:#C3DCF2"/>
		<stop  offset="0.1706" style="stop-color:#A9D2EE"/>
		<stop  offset="0.3066" style="stop-color:#80C2E7"/>
		<stop  offset="0.4649" style="stop-color:#47ACDE"/>
		<stop  offset="0.5674" style="stop-color:#1E9CD7"/>
		<stop  offset="0.8652" style="stop-color:#0075BE"/>
		<stop  offset="0.9944" style="stop-color:#005B97"/>
	</radialGradient>
	<path class="st5" d="M68.5,61.03c0,0-34.09,40.8-35,106.87c-6.23-5.52-18.48-17.87-25.79-37.86c-7.33-20.05-5.9-37.44-4.68-45.68
		C3.03,84.35,46.37,61.03,68.5,61.03z"/>
</g>
<g id="logo_2">
</g>
<g id="logo_3">
</g>
</svg>
