<?xml version="1.0" encoding="utf-8"?>
<!-- Generator: Adobe Illustrator 24.3.0, SVG Export Plug-In . SVG Version: 6.00 Build 0)  -->
<svg version="1.1" xmlns="http://www.w3.org/2000/svg" xmlns:xlink="http://www.w3.org/1999/xlink" x="0px" y="0px"
	 viewBox="0 0 234.99 237.07" style="enable-background:new 0 0 234.99 237.07;" xml:space="preserve">
<style type="text/css">
	.st0{fill-rule:evenodd;clip-rule:evenodd;fill:url(#SVGID_1_);}
	.st1{fill-rule:evenodd;clip-rule:evenodd;fill:url(#SVGID_2_);}
	.st2{fill-rule:evenodd;clip-rule:evenodd;fill:url(#SVGID_3_);}
	.st3{fill-rule:evenodd;clip-rule:evenodd;fill:url(#SVGID_4_);}
	.st4{fill-rule:evenodd;clip-rule:evenodd;fill:url(#SVGID_5_);}
	.st5{fill-rule:evenodd;clip-rule:evenodd;fill:url(#SVGID_6_);}
	.st6{fill-rule:evenodd;clip-rule:evenodd;fill:#3361E0;}
	.st7{fill-rule:evenodd;clip-rule:evenodd;fill:none;stroke:#3361E0;stroke-width:4;stroke-miterlimit:10;}
	.st8{fill-rule:evenodd;clip-rule:evenodd;fill:url(#SVGID_7_);}
	.st9{fill-rule:evenodd;clip-rule:evenodd;fill:url(#SVGID_8_);}
	.st10{fill-rule:evenodd;clip-rule:evenodd;fill:url(#SVGID_9_);}
	.st11{fill-rule:evenodd;clip-rule:evenodd;fill:url(#SVGID_10_);}
	.st12{fill-rule:evenodd;clip-rule:evenodd;fill:url(#SVGID_11_);}
	.st13{fill-rule:evenodd;clip-rule:evenodd;fill:url(#SVGID_12_);}
</style>
<g id="logo_1">
</g>
<g id="logo_2">
	<path class="st6" d="M28.69,101.14c0,0,53-29.94,109.68-22.28c0,0-32.31-36.69-52.58-45.24C85.79,33.61,42.75,46.14,28.69,101.14z"
		/>
	<path class="st6" d="M91.21,31.66c0,0,52.61,31.02,74.39,83.96c0,0,14.35-37.47,13.05-68.1C178.65,47.52,136.14,13.91,91.21,31.66z
		"/>
	<path class="st6" d="M182.55,50.81c0,0,0.25,60.38-34.3,105.99c0,0,42.07-6.61,64.61-22.45c1.18-8.04,1.81-19.32-0.85-32.29
		C206.4,74.78,189.85,57.57,182.55,50.81z"/>
	<path class="st6" d="M211.86,139.95c0,0-46.76,28.61-109.4,22.65c0,0,25.71,31.86,52.26,45.12c9.74-4.17,32.63-15.63,47.11-41.13
		C207.38,156.8,210.28,147.44,211.86,139.95z"/>
	<path class="st6" d="M74.88,125.66c0,0,15.74,46.42,74,84.14c-7.4,2.37-17.31,4.55-29.02,4.46c-28.57-0.22-49.24-13.85-57.58-20.1
		C62.28,194.17,61.09,161.75,74.88,125.66z"/>
	<path class="st6" d="M93.09,83.79c0,0-34.09,40.8-35,106.87c-6.23-5.52-18.48-17.87-25.79-37.86c-7.33-20.05-5.9-37.44-4.68-45.68
		C27.62,107.12,70.97,83.79,93.09,83.79z"/>
	<circle class="st7" cx="120.27" cy="121.72" r="106.21"/>
</g>
<g id="logo_3">
</g>
</svg>
